<?xml version="1.0" encoding="utf-8"?>
<!-- Generator: Adobe Illustrator 21.1.0, SVG Export Plug-In . SVG Version: 6.00 Build 0)  -->
<svg version="1.1" id="Layer_1" xmlns="http://www.w3.org/2000/svg" xmlns:xlink="http://www.w3.org/1999/xlink" x="0px" y="0px"
	 viewBox="0 0 24 24" style="enable-background:new 0 0 24 24;" xml:space="preserve">
<style type="text/css">
	.st0{fill:#666666;}
</style>
<g>
	<path class="st0" d="M13.7,0c0,0.7,0,1.3,0,2c-0.1,0-0.3,0-0.4,0C10.2,2,7.1,2,4,2C3.7,2,3.5,2,3.3,2.1C2.5,2.3,2,2.9,2,3.7
		C2,3.8,2,3.9,2,4c0,5.3,0,10.6,0,15.9c0,0.2,0,0.5,0.1,0.7C2.3,21.5,2.9,22,3.8,22c0.1,0,0.3,0,0.4,0c5.2,0,10.5,0,15.7,0
		c0.3,0,0.6,0,0.8-0.1c0.8-0.2,1.3-0.8,1.3-1.8c0-0.1,0-0.3,0-0.4c0-3,0-6.1,0-9.1c0-0.1,0-0.2,0-0.4c0.7,0,1.3,0,1.9,0
		c0,0.1,0.1,0.2,0.1,0.2c0,3.3,0,6.6,0,10c0,0.1,0,0.1-0.1,0.2c-0.3,1.6-1.2,2.6-2.7,3.1c-0.2,0.1-0.4,0.1-0.6,0.2
		c-5.7,0-11.4,0-17.1,0c-0.1,0-0.1,0-0.2-0.1c-1.5-0.2-2.7-1.2-3.1-2.7C0.1,21,0.1,20.7,0,20.5c0-5.7,0-11.3,0-17
		c0-0.1,0-0.2,0.1-0.3c0.2-1.5,1.2-2.7,2.7-3.1C3,0.1,3.2,0.1,3.5,0C6.9,0,10.3,0,13.7,0z"/>
	<path class="st0" d="M24,5.9c-0.1,0.2-0.2,0.3-0.3,0.5c-0.2,0.2-0.4,0.3-0.7,0.3c-1.1,0-2.3,0-3.4,0c-0.1,0-0.2,0-0.3,0
		c0,0.1,0,0.2,0,0.3c0,1.1,0,2.2,0,3.4c0,0.6-0.4,1.1-1,1.1c-0.6,0-1-0.4-1-1.1c0-1.1,0-2.2,0-3.3c0-0.1,0-0.2,0-0.3
		c-0.1,0-0.2,0-0.3,0c-1.1,0-2.2,0-3.4,0c-0.6,0-1.1-0.4-1.1-1c0-0.6,0.4-1,1.1-1c1.1,0,2.2,0,3.3,0c0.1,0,0.2,0,0.3,0
		c0-0.1,0-0.2,0-0.3c0-1,0-2.1,0-3.1c0-0.6,0.2-1.1,0.8-1.3c0.1,0,0.3,0,0.4,0c0.6,0.2,0.8,0.7,0.8,1.3c0,1,0,2.1,0,3.1
		c0,0.1,0,0.2,0,0.3c0.1,0,0.2,0,0.3,0c1.1,0,2.2,0,3.3,0c0.1,0,0.2,0,0.3,0c0.4,0.1,0.6,0.4,0.7,0.7C24,5.6,24,5.8,24,5.9z"/>
</g>
</svg>
