<?xml version="1.0" encoding="utf-8"?>
<!-- Generator: Adobe Illustrator 21.1.0, SVG Export Plug-In . SVG Version: 6.00 Build 0)  -->
<svg version="1.1" id="Layer_1" xmlns="http://www.w3.org/2000/svg" xmlns:xlink="http://www.w3.org/1999/xlink" x="0px" y="0px"
	 viewBox="0 0 24 24" style="enable-background:new 0 0 24 24;" xml:space="preserve">
<style type="text/css">
	.st0{fill:#F04848;}
</style>
<g>
	<g>
		<path class="st0" d="M4.4,21.3c0.4-0.5,0.8-0.9,1.1-1.4c4.2,3.3,9.4,2.7,12.6,0.2c3.4-2.6,4.9-7,3.6-11.1
			c-0.7-2.3-2.2-4.2-4.2-5.5c-2-1.3-4.3-1.8-6.8-1.5c-0.1-0.6-0.2-1.2-0.2-1.8c1.9-0.2,3.7,0,5.5,0.6c2.8,1,5,2.9,6.5,5.5
			c2.9,5.2,1.5,11.8-3.3,15.4C14.3,25.3,8,24.4,4.4,21.3z"/>
		<path class="st0" d="M5.8,3.9C5.5,3.4,5.1,2.9,4.7,2.4c0.9-0.5,1.8-1,2.7-1.6C7.7,1.5,7.9,2,8.1,2.5C7.4,3,6.6,3.4,5.8,3.9z"/>
		<path class="st0" d="M2.5,4.7c0.5,0.4,1,0.7,1.4,1.1C3.4,6.5,3,7.3,2.6,8.1C2,7.9,1.5,7.6,0.9,7.4C1.3,6.4,1.8,5.5,2.5,4.7z"/>
		<path class="st0" d="M0.9,16.6c0.6-0.2,1.1-0.5,1.7-0.7c0.4,0.8,0.9,1.5,1.3,2.3c-0.4,0.3-0.9,0.7-1.4,1.1
			C1.8,18.5,1.3,17.6,0.9,16.6z"/>
		<path class="st0" d="M0.1,10.4c0.6,0.1,1.2,0.2,1.8,0.2c0,0.9,0,1.8,0,2.7c-0.6,0.1-1.1,0.2-1.8,0.2C-0.1,12.5,0,11.5,0.1,10.4z"
			/>
	</g>
	<path class="st0" d="M17.7,16.8c-1.5-1.5-2.9-3-4.4-4.5c-0.1-0.1-0.1-0.1-0.2-0.2c0.1-0.1,0.1-0.1,0.2-0.2c1.5-1.5,2.9-2.9,4.4-4.4
		c0.1-0.1,0.2-0.3,0.3-0.5c0.1-0.3-0.1-0.7-0.4-0.8c-0.3-0.2-0.6-0.1-0.9,0.1c-1.5,1.5-3.1,3.1-4.6,4.7c-1.5-1.6-3.1-3.1-4.6-4.7
		C7.3,6.2,6.9,6.1,6.6,6.3C6.4,6.4,6.2,6.7,6.3,7.1c0,0.2,0.2,0.3,0.3,0.5C8,9,9.5,10.5,10.9,12c0.1,0.1,0.1,0.1,0.2,0.2
		c-0.1,0.1-0.1,0.1-0.2,0.2c-1.5,1.5-2.9,3-4.4,4.5c-0.3,0.3-0.3,0.8,0,1.1c0.3,0.3,0.7,0.3,1.1,0c1.5-1.5,3-3.1,4.6-4.6
		c1.5,1.5,3,3.1,4.6,4.6c0.3,0.3,0.8,0.4,1.1,0C18.1,17.6,18,17.2,17.7,16.8z"/>
</g>
</svg>
