<?xml version="1.0" encoding="utf-8"?>
<!-- Generator: Adobe Illustrator 21.0.0, SVG Export Plug-In . SVG Version: 6.00 Build 0)  -->
<svg version="1.1" id="Layer_1" xmlns="http://www.w3.org/2000/svg" xmlns:xlink="http://www.w3.org/1999/xlink" x="0px" y="0px"
	 viewBox="0 0 16 16" style="enable-background:new 0 0 16 16;" xml:space="preserve">
<style type="text/css">
	.st0{fill:#F89522;}
</style>
<g>
	<g>
		<path class="st0" d="M7.2,11.1L3.6,7.4c-0.3-0.3-0.3-0.8,0-1.1C3.9,6,4.4,6,4.7,6.3l2.5,2.5l5.9-6.8c0.3-0.3,0.8-0.3,1.1,0
			c0.3,0.3,0.3,0.8,0,1.1L7.2,11.1z"/>
	</g>
	<path class="st0" d="M14.2,5.9c0.2,0.7,0.4,1.4,0.4,2.1c0,3.6-2.9,6.5-6.5,6.5c-3.6,0-6.5-2.9-6.5-6.5S4.4,1.5,8,1.5
		c0.7,0,1.3,0.1,1.9,0.3l1-1.1C10,0.3,9,0.1,8,0.1C3.7,0.1,0.1,3.7,0.1,8s3.5,7.9,7.9,7.9s7.9-3.5,7.9-7.9c0-1.1-0.2-2.2-0.7-3.2
		L14.2,5.9z"/>
</g>
</svg>
