<?xml version="1.0" encoding="utf-8"?>
<!-- Generator: Adobe Illustrator 21.0.0, SVG Export Plug-In . SVG Version: 6.00 Build 0)  -->
<svg version="1.1" id="Layer_1" xmlns="http://www.w3.org/2000/svg" xmlns:xlink="http://www.w3.org/1999/xlink" x="0px" y="0px"
	 viewBox="0 0 20 20" style="enable-background:new 0 0 20 20;" xml:space="preserve">
<style type="text/css">
	.st0{fill:#999999;}
</style>
<g>
	<g>
		<g>
			<path class="st0" d="M8.5,16.6c-4.5,0-8.2-3.7-8.2-8.2S4,0.2,8.5,0.2s8.2,3.7,8.2,8.2S13,16.6,8.5,16.6z M8.5,2.1
				C5,2.1,2.2,4.9,2.2,8.4s2.8,6.3,6.3,6.3s6.3-2.8,6.3-6.3S11.9,2.1,8.5,2.1z"/>
		</g>
		<path class="st0" d="M19.2,16.8L16,13.6c-0.7,1-1.5,1.8-2.5,2.4l3.2,3.2c0.7,0.7,1.8,0.7,2.5,0C19.9,18.6,19.9,17.5,19.2,16.8z"/>
	</g>
</g>
</svg>
